<svg xmlns="http://www.w3.org/2000/svg" width="160" height="160" viewBox="0 0 160 160"><g fill="none" fill-rule="evenodd" transform="translate(0 2.513)"><rect width="160" height="38" y="52.487" fill="#FFC79D" rx="19"/><path fill="#FFA76C" d="M152.666667,60.4865818 L153.333333,60.4865818 L153.333333,60.4865818 L153.333333,80.4865818 L152.666667,80.4865818 C147.143819,80.4865818 142.666667,76.0094293 142.666667,70.4865818 C142.666667,64.9637343 147.143819,60.4865818 152.666667,60.4865818 Z" opacity=".709" transform="matrix(-1 0 0 1 296 0)"/><path fill="#FFA76C" d="M16.6666667,60.4865818 L17.3333333,60.4865818 L17.3333333,60.4865818 L17.3333333,80.4865818 L16.6666667,80.4865818 C11.1438192,80.4865818 6.66666667,76.0094293 6.66666667,70.4865818 C6.66666667,64.9637343 11.1438192,60.4865818 16.6666667,60.4865818 Z" opacity=".709"/><path fill="#FFD8B7" d="M55,15.4865818 L105,15.4865818 C127.09139,15.4865818 145,33.3951919 145,55.4865818 L145,108.486582 L145,108.486582 L15,108.486582 L15,55.4865818 C15,33.3951919 32.90861,15.4865818 55,15.4865818 Z"/><path fill="#FFD8B7" d="M25,68.4865818 L135,68.4865818 C147.702549,68.4865818 158,78.7840326 158,91.4865818 C158,105.561292 147.902966,117.608075 134.044812,120.067547 C117.445115,123.013569 99.3266621,124.486582 79.6894519,124.486582 C60.2120722,124.486582 42.3188326,123.037449 26.009733,120.139185 L26.0097281,120.139212 C12.1192752,117.670761 2,105.594662 2,91.4865818 C2,78.7840326 12.2974508,68.4865818 25,68.4865818 Z"/><path fill="#073550" d="M60,85.0623394 L97,85.0623394 C103.627417,85.0623394 109,90.4349224 109,97.0623394 L109,122.562339 C109,139.407024 95.3446849,153.062339 78.5,153.062339 C61.6553151,153.062339 48,139.407024 48,122.562339 L48,97.0623394 C48,90.4349224 53.372583,85.0623394 60,85.0623394 Z"/><path fill="#23B18C" fill-rule="nonzero" d="M74.784091,4.94981445 C76.0678219,2.19684462 79.3402144,1.00579115 82.0931842,2.28952206 C84.8461541,3.57325298 86.0372075,6.8456455 84.7534766,9.59861533 L80.527294,18.6616932 C79.2435631,21.414663 75.9711706,22.6057165 73.2182007,21.3219856 C70.4652309,20.0382547 69.2741774,16.7658622 70.5579084,14.0128923 L74.784091,4.94981445 Z" transform="rotate(-60 77.656 11.806)"/><path fill="#5AE8A1" fill-rule="nonzero" d="M74.9894838,10.3895532 C75.5169516,7.39813449 78.3695728,5.40070767 81.3609914,5.92817549 L91.2090689,7.66465727 C94.2004876,8.19212509 96.1979144,11.0447462 95.6704466,14.0361649 C95.1429788,17.0275836 92.2903577,19.0250104 89.298939,18.4975426 L79.4508615,16.7610608 C76.4594428,16.233593 74.462016,13.3809718 74.9894838,10.3895532 Z" transform="rotate(-60 85.33 12.213)"/><path fill="#FFBE87" d="M68.5,79.0623394 L88.5,79.0623394 C92.0898509,79.0623394 95,81.9724885 95,85.5623394 C95,89.1521903 92.0898509,92.0623394 88.5,92.0623394 L68.5,92.0623394 C64.9101491,92.0623394 62,89.1521903 62,85.5623394 C62,81.9724885 64.9101491,79.0623394 68.5,79.0623394 Z"/><path fill="#FFBE87" d="M0,0 L21,0 L21,22 C21,25.8659932 17.8659932,29 14,29 L7,29 C3.13400675,29 2.36723813e-16,25.8659932 0,22 L0,0 L0,0 Z" transform="translate(68 62.487)"/><circle cx="135" cy="94.987" r="13" fill="#FF7407" opacity=".365"/><circle cx="22" cy="94.987" r="13" fill="#FF7407" opacity=".365"/><circle cx="46.895" cy="73.987" r="10.5" fill="#000"/><circle cx="109.105" cy="73.987" r="10.5" fill="#000"/><circle cx="131.105" cy="38.987" r="4.5" fill="#FFF"/><circle cx="70" cy="135.487" r="7" fill="#000" opacity=".153"/><circle cx="92" cy="116.987" r="5.5" fill="#000" opacity=".153"/><rect width="8.643" height="11" x="81.179" y="96.487" fill="#FFF" rx="2"/><path fill="#FFE7D2" d="M92.8408715,15.486791 C87.7277647,26.2231898 73.1302875,36.6263251 54.3207735,41.6663192 C40.5866983,45.3463536 27.3677245,45.4273343 17.4203323,42.578764 C23.1156615,26.7800842 38.2389613,15.4865818 56,15.4865818 Z" opacity=".852"/><path fill="#FEC490" d="M23.9070815,-5.32922457e-15 C23.9684083,0.327727784 24,0.661612476 24,1.00041627 C24,5.41869426 18.627417,9.00041627 12,9.00041627 C5.372583,9.00041627 0,5.41869426 0,1.00041627 C0,0.661612476 0.0315917423,0.327727784 0.0929185105,-5.46492871e-15 Z" transform="translate(70 15.486)"/><path fill="#000" fill-rule="nonzero" d="M93.3580593,102.758381 C94.7387232,102.746869 95.8673048,103.856786 95.8789057,105.237449 C95.890329,106.618113 94.7804122,107.746695 93.3997483,107.758207 L66.0208445,107.986495 C64.6401806,107.998007 63.511599,106.88809 63.4999982,105.507426 C63.4885748,104.126762 64.5984916,102.998181 65.9791555,102.986669 L93.3580593,102.758381 Z"/><path fill="#FFF" fill-rule="nonzero" d="M104.031268,20.4861494 L104.223242,20.4932297 C114.485871,21.1491521 121.784589,23.7911937 125.99622,28.7096341 C127.253479,30.1778901 127.082432,32.3873566 125.614176,33.6446156 C124.14592,34.9018746 121.936454,34.7308277 120.679195,33.2625717 C117.928835,30.0506378 112.335748,28.0260127 103.776758,27.478976 C101.847697,27.3556826 100.383833,25.691921 100.507127,23.7628605 C100.63042,21.8337999 102.294182,20.3699364 104.223242,20.4932297 L104.031268,20.4861494 Z"/><rect width="109" height="13" x="26" y="59.487" fill="#073550" rx="6.5"/><rect width="13" height="6" x="117" y="62.326" fill="#135378" rx="3"/></g></svg>
