<svg xmlns="http://www.w3.org/2000/svg" width="199" height="199" viewBox="0 0 199 199"><g fill="none" fill-rule="evenodd" transform="translate(0 9.954)"><g transform="translate(0 52.046)"><rect width="160" height="38" fill="#FFC79D" rx="19"/><path fill="#FFA76C" d="M152.666667,8 L153.333333,8 L153.333333,8 L153.333333,28 L152.666667,28 C147.143819,28 142.666667,23.5228475 142.666667,18 C142.666667,12.4771525 147.143819,8 152.666667,8 Z" opacity=".709" transform="matrix(-1 0 0 1 296 0)"/><path fill="#FFA76C" d="M16.6666667,8 L17.3333333,8 L17.3333333,8 L17.3333333,28 L16.6666667,28 C11.1438192,28 6.66666667,23.5228475 6.66666667,18 C6.66666667,12.4771525 11.1438192,8 16.6666667,8 Z" opacity=".709"/></g><path fill="#FFD8B7" d="M40,0 L90,0 C112.09139,-4.05812251e-15 130,17.90861 130,40 L130,145 L130,145 L0,145 L0,40 C-2.705415e-15,17.90861 17.90861,2.705415e-15 40,0 Z" transform="translate(15 15.046)"/><rect width="168" height="38" y="112.046" fill="#FFD8B7" rx="19"/><path fill="#FFA562" d="M41,76.0456561 L119,76.0456561 C131.702549,76.0456561 142,86.3431069 142,99.0456561 L142,105.85488 C142.000453,116.519716 134.669452,125.785909 124.2906,128.239099 C110.734845,131.443424 95.8890406,133.045656 79.7531541,133.045656 C63.7118558,133.045656 49.0223638,131.462154 35.684678,128.295149 L35.6847721,128.294753 C25.3183275,125.832448 18.0001873,116.572614 18,105.91775 L18,99.0456561 C18,86.3431069 28.2974508,76.0456561 41,76.0456561 Z" opacity=".612"/><path fill="#FCA65E" d="M170.468426,120.490978 C172.889475,120.490978 174.852123,122.453626 174.852123,124.874675 C174.852123,125.203704 174.81508,125.531686 174.741692,125.852426 L173.244629,132.39519 C172.651908,134.985679 170.071407,136.60519 167.480918,136.01247 C165.994386,135.672341 164.75708,134.64769 164.145852,133.250598 C164.145852,133.250598 164.145852,133.250598 164.145852,133.250598 C163.351026,131.433852 163.072911,129.338524 163.311509,126.964615 L163.31152,126.964616 C163.680936,123.289123 166.774415,120.490978 170.468426,120.490978 Z" transform="rotate(-165 169.599 128.868)"/><polygon fill="#FF6607" points="124.25 105.046 124.25 165.046 145.25 165.046" opacity=".14" transform="matrix(-1 0 0 1 269.5 0)"/><path fill="#FFD8B7" d="M124,150.045656 L124,170.045656 C124,180.539066 115.49341,189.045656 105,189.045656 C94.5065898,189.045656 86,180.539066 86,170.045656 L86,150.045656 C86,139.552246 94.5065898,131.045656 105,131.045656 C115.49341,131.045656 124,139.552246 124,150.045656 Z M74,150.045656 L74,170.045656 C74,180.539066 65.4934102,189.045656 55,189.045656 C44.5065898,189.045656 36,180.539066 36,170.045656 L36,150.045656 C36,139.552246 44.5065898,131.045656 55,131.045656 C65.4934102,131.045656 74,139.552246 74,150.045656 Z"/><path fill="#FFD8B7" d="M35.380525,173.734919 L74,171.045656 L74,171.045656 L74,177.045656 C74,183.673073 68.627417,189.045656 62,189.045656 L35.3983975,189.045656 C31.3123754,189.045656 28,185.733281 28,181.647259 C28,177.480637 31.2239686,174.02436 35.380525,173.734919 Z"/><path fill="#FFD8B7" d="M93.380525,173.734919 L132,171.045656 L132,171.045656 L132,177.045656 C132,183.673073 126.627417,189.045656 120,189.045656 L93.3983975,189.045656 C89.3123754,189.045656 86,185.733281 86,181.647259 C86,177.480637 89.2239686,174.02436 93.380525,173.734919 Z" transform="matrix(-1 0 0 1 218 0)"/><path fill="#FFA562" d="M86.8181992,152.513173 C97.9663522,154.969113 110.34068,156.314275 123.941182,156.548659 C123.980349,157.041552 124,157.541309 124,158.045656 L123.999414,173.724668 C119.822744,173.568015 115.625004,174.151235 111.605213,175.474327 C104.416736,177.840373 96.6591977,177.840373 89.470721,175.474327 L88.9020482,175.292449 C87.9431894,174.994665 86.9748159,174.738639 85.9995961,174.524371 L86,158.045656 C86,156.127506 86.2842415,154.275744 86.8129017,152.530192 Z M50.4308356,139.599709 C56.8117335,142.468334 63.2695117,145.119402 69.8041702,147.552911 C70.2529375,147.720032 70.7042647,147.884834 71.1581518,148.047317 C72.9601873,150.951045 74,154.37692 74,158.045656 L73.9994282,173.974787 C71.7472008,174.257165 69.5155631,174.757011 67.3362293,175.474327 C60.1477526,177.840373 52.3902142,177.840373 45.2017376,175.474327 L44.6330647,175.292449 C41.8146839,174.41717 38.9141002,173.902662 35.9990781,173.748926 L36,158.045656 C36,149.131899 42.1382387,141.651804 50.4183557,139.601733 Z" opacity=".413"/><path fill="#FF7407" d="M15,112.117047 L15,165.157474 C15,167.918898 17.2385763,170.157474 20,170.157474 C20.5425486,170.157474 21.0814806,170.06917 21.5956596,169.896025 L25.8176087,168.474327 C32.8357361,166.111043 40.4346988,166.111043 47.4528262,168.474327 C54.4709536,170.83761 62.0699163,170.83761 69.0880437,168.474327 C76.106171,166.111043 83.7051337,166.111043 90.7232611,168.474327 C97.7413885,170.83761 105.340351,170.83761 112.358479,168.474327 C119.376606,166.111043 126.975569,166.111043 133.993696,168.474327 L138.272333,169.915114 C140.889363,170.796373 143.725285,169.389252 144.606544,166.772222 C144.775303,166.271066 144.863493,165.746311 144.867825,165.217521 L145,149.082505 L145,149.082505 C115.536673,150.839388 91.0367782,147.99619 71.5003167,140.552911 C62.9891406,137.310202 63.9231777,118.560965 55.6788634,114.545656 C48.5591332,111.078064 34.9995121,110.268528 15,112.117047 Z"/><path fill="#FF4E17" d="M145,149.082505 L144.867825,165.217521 C144.863493,165.746311 144.775303,166.271066 144.606544,166.772222 C143.725285,169.389252 140.889363,170.796373 138.272333,169.915114 L133.993696,168.474327 C130.613626,167.336122 127.098826,166.746099 123.579073,166.704259 L129.527235,149.584254 C134.523038,149.566946 139.680626,149.399697 145,149.082505 Z M15,112.117047 C16.0449722,112.780671 17.0922798,113.437533 18.1419227,114.087634 L36.4212221,166.702539 C32.838336,166.725155 29.2581748,167.315751 25.8176087,168.474327 L21.5956596,169.896025 C21.0814806,170.06917 20.5425486,170.157474 20,170.157474 C17.2385763,170.157474 15,167.918898 15,165.157474 Z"/><path fill="#FFD8B7" d="M25,68.0456561 L135,68.0456561 C147.702549,68.0456561 158,78.3431069 158,91.0456561 C158,105.120366 147.902966,117.167149 134.044812,119.626621 C117.445115,122.572643 99.3266621,124.045656 79.6894519,124.045656 C60.2120722,124.045656 42.3188326,122.596524 26.009733,119.698259 L26.0097281,119.698286 C12.1192752,117.229835 2,105.153736 2,91.0456561 C2,78.3431069 12.2974508,68.0456561 25,68.0456561 Z"/><path fill="#073550" d="M60,84.6214137 L97,84.6214137 C103.627417,84.6214137 109,89.9939967 109,96.6214137 L109,122.121414 C109,138.966099 95.3446849,152.621414 78.5,152.621414 C61.6553151,152.621414 48,138.966099 48,122.121414 L48,96.6214137 C48,89.9939967 53.372583,84.6214137 60,84.6214137 Z"/><path fill="#FFBE87" d="M68.5,78.6214137 L88.5,78.6214137 C92.0898509,78.6214137 95,81.5315628 95,85.1214137 C95,88.7112646 92.0898509,91.6214137 88.5,91.6214137 L68.5,91.6214137 C64.9101491,91.6214137 62,88.7112646 62,85.1214137 C62,81.5315628 64.9101491,78.6214137 68.5,78.6214137 Z"/><path fill="#FFBE87" d="M0,0 L21,0 L21,22 C21,25.8659932 17.8659932,29 14,29 L7,29 C3.13400675,29 2.36723813e-16,25.8659932 0,22 L0,0 L0,0 Z" transform="translate(68 62.046)"/><circle cx="135" cy="94.546" r="13" fill="#FF7407" opacity=".365"/><circle cx="22" cy="94.546" r="13" fill="#FF7407" opacity=".365"/><circle cx="114" cy="138.046" r="4" fill="#FFA76C" opacity=".421"/><circle cx="46.895" cy="73.546" r="10.5" fill="#000"/><circle cx="109.105" cy="73.546" r="10.5" fill="#000"/><circle cx="131.105" cy="38.546" r="4.5" fill="#FFF"/><circle cx="70" cy="135.046" r="7" fill="#000" opacity=".153"/><circle cx="92" cy="116.546" r="5.5" fill="#000" opacity=".153"/><g transform="translate(65.702 96.046)"><rect width="8.643" height="11" x="15.477" fill="#FFF" rx="2"/><path fill="#000" fill-rule="nonzero" d="M27.6563125,6.27179898 C29.0369764,6.26028687 30.165558,7.37020369 30.1771589,8.75086757 C30.1885823,10.1315314 29.0786655,11.2601131 27.6980016,11.2716252 L0.319097741,11.4999131 C-1.06156614,11.5114252 -2.19014777,10.4015084 -2.20174862,9.02084451 C-2.21317198,7.64018063 -1.10325517,6.51159901 0.277408712,6.5000869 L27.6563125,6.27179898 Z"/></g><path fill="#FFE7D2" d="M93.8408715,15.0458652 C88.7277647,25.7822641 74.1302875,36.1853994 55.3207735,41.2253935 C41.166635,45.0179835 27.559589,44.9879954 17.5168553,41.8682613 C23.2875074,26.2112582 38.3398207,15.0456561 56,15.0456561 Z" opacity=".852"/><g transform="translate(71)"><path fill="#FEC490" d="M21.8633247,15.0438538 C21.953279,15.5330222 22,16.034627 22,16.5456561 C22,21.7923612 17.0751322,26.0456561 11,26.0456561 C4.92486775,26.0456561 0,21.7923612 0,16.5456561 C0,16.0349768 0.0466571027,15.5337089 0.136490692,15.0448582 Z"/><g fill-rule="nonzero" transform="rotate(-60 8.55 2.248)"><path fill="#23B18C" d="M-0.0661102645,-2.32440044 C1.21762065,-5.07737027 4.49001317,-6.26842374 7.242983,-4.98469283 C9.99595284,-3.70096191 11.1870063,-0.428569392 9.90327539,2.32440044 L5.67709278,11.3874783 C4.39336186,14.1404481 1.12096934,15.3315016 -1.63200049,14.0477707 C-4.38497032,12.7640398 -5.5760238,9.49164726 -4.29229288,6.73867743 L-0.0661102645,-2.32440044 Z"/><path fill="#5AE8A1" d="M-5.41644264,9.19187539 C-4.88897482,6.20045672 -2.03635369,4.2030299 0.955064977,4.73049772 L10.8031425,6.4669795 C13.7945612,6.99444732 15.791988,9.84706845 15.2645202,12.8384871 C14.7370523,15.8299058 11.8844312,17.8273326 8.89301255,17.2998648 L-0.955064977,15.563383 C-3.94648365,15.0359152 -5.94391046,12.1832941 -5.41644264,9.19187539 Z"/></g></g><g transform="rotate(-4 357.999 -1616.026)"><path fill="#8C4D26" d="M45.0413101,5.76684008 C55.60867,4.83349765 64.9318313,12.6434119 65.8651737,23.2107718 C65.9683351,24.3787712 65.9643321,25.5537634 65.853215,26.7210328 L55.7265876,133.099802 C55.3144663,137.429077 51.6784456,140.735408 47.3295987,140.735408 C42.9395859,140.735408 39.228529,137.483728 38.6517636,133.131769 L25.0748425,30.6876672 C23.4710764,18.5865153 31.9808889,7.47648397 44.0820409,5.8727178 C44.4009886,5.83044765 44.7208212,5.79514666 45.0413101,5.76684008 Z" transform="rotate(20 45.041 72.235)"/><circle cx="66.47" cy="43.327" r="4" fill="#351907" opacity=".421"/><path fill="#A46037" d="M66.8372687,9.54678832 C67.1514387,9.61615391 67.4640567,9.69237103 67.7748992,9.7753852 C71.9501779,10.8904429 75.4351724,13.2983406 77.9143449,16.4535943 C77.0794388,28.3974331 67.126196,37.8273946 54.9704677,37.8273946 C48.9229711,37.8273946 43.4206074,35.4934034 39.3150256,31.6770701 L40.4891321,26.3643685 C43.1209226,14.4444849 54.9173851,6.91499783 66.8372687,9.54678832 Z"/><circle cx="47.97" cy="57.827" r="7.5" fill="#351907" opacity=".15"/><path fill="#D58453" fill-rule="nonzero" d="M52.9920739,13.2400337 C53.3745459,11.3452538 55.2206233,10.1192859 57.1154033,10.5017579 C63.4180727,11.7739871 68.1639762,14.1517255 71.2455235,17.7504274 C72.5027825,19.2186835 72.3317357,21.42815 70.8634796,22.6854089 C69.3952236,23.9426679 67.1857571,23.7716211 65.9284981,22.303365 C63.9871888,20.0362592 60.6236694,18.3511072 55.7303498,17.3633631 C53.8355698,16.9808912 52.6096019,15.1348137 52.9920739,13.2400337 Z" transform="rotate(-28 62.505 16.98)"/><circle cx="47.076" cy="25.327" r="4" fill="#D58453"/></g><g fill="#FFD8B7" transform="translate(147.778 123.712)"><path d="M17.6522921,1.37230591 L18.5472016,1.46374919 C23.7722948,1.99765754 27.5752516,6.66625073 27.0413432,11.891344 C26.9346197,12.9357942 26.6556846,13.955364 26.2158562,14.908683 L24.0757229,19.5473784 C21.9796886,24.0904902 17.4331033,27 12.4297819,27 C7.89687186,27 4.22222222,23.3253504 4.22222222,18.7924403 L4.22222222,13.5 C4.22222222,6.76718345 9.68024845,1.30915722 16.413065,1.30915722 C16.8269448,1.30915722 17.2405562,1.33023408 17.6522921,1.37230591 Z"/><rect width="18.222" height="11" x="2" y="1.334" rx="5.5"/><rect width="18.222" height="11" y="9.334" rx="5.5"/><path d="M6.5,18.3342006 L24.6364234,18.3342006 L24.6364234,18.3342006 L23.1250507,21.3006898 C20.6134817,26.2303428 15.5486426,29.3342006 10.0160611,29.3342006 L6.5,29.3342006 C3.46243388,29.3342006 1,26.8717667 1,23.8342006 C1,20.7966345 3.46243388,18.3342006 6.5,18.3342006 Z"/></g><circle cx="42.5" cy="143.046" r="8.5" fill="#FF4E17" opacity=".918"/><circle cx="101.5" cy="158.046" r="8.5" fill="#FF4E17" opacity=".918"/><circle cx="64.5" cy="160.046" r="5.5" fill="#FF4E17" opacity=".918"/><path fill="#FFF" fill-rule="nonzero" d="M104.031268,20.0452236 L104.223242,20.052304 C114.485871,20.7082264 121.784589,23.350268 125.99622,28.2687083 C127.253479,29.7369644 127.082432,31.9464309 125.614176,33.2036899 C124.14592,34.4609488 121.936454,34.289902 120.679195,32.8216459 C117.928835,29.609712 112.335748,27.5850869 103.776758,27.0380503 C101.847697,26.9147569 100.383833,25.2509953 100.507127,23.3219347 C100.63042,21.3928742 102.294182,19.9290106 104.223242,20.052304 L104.031268,20.0452236 Z"/><rect width="109" height="13" x="26" y="59.046" fill="#073550" rx="6.5"/><rect width="13" height="6" x="117" y="61.885" fill="#135378" rx="3"/><g fill="#FFD8B7" transform="matrix(0 -1 -1 0 27.842 166.776)"><path d="M17.6522921,1.37230591 L18.5472016,1.46374919 C23.7722948,1.99765754 27.5752516,6.66625073 27.0413432,11.891344 C26.9346197,12.9357942 26.6556846,13.955364 26.2158562,14.908683 L24.0757229,19.5473784 C21.9796886,24.0904902 17.4331033,27 12.4297819,27 C7.89687186,27 4.22222222,23.3253504 4.22222222,18.7924403 L4.22222222,13.5 C4.22222222,6.76718345 9.68024845,1.30915722 16.413065,1.30915722 C16.8269448,1.30915722 17.2405562,1.33023408 17.6522921,1.37230591 Z"/><rect width="20" height="11" x=".222" y="1.334" rx="5.5"/><rect width="18.222" height="11" y="9.334" rx="5.5"/><path d="M6.25393146,17.3342006 L24.6364234,17.3342006 L24.6364234,17.3342006 L34.5065581,27.8420635 L6.25393146,27.8420635 C3.35226524,27.8420635 1,25.4897983 1,22.5881321 C1,19.6864658 3.35226524,17.3342006 6.25393146,17.3342006 Z"/></g><path fill="#FFC394" d="M15,114.545656 L15,140.117047 L11.4943936,140.075336 C10.3899023,140.062194 9.50518872,139.156173 9.51833058,138.051682 C9.52007092,137.905417 9.53785198,137.759785 9.57135468,137.617399 L15,114.545656 L15,114.545656 Z"/></g></svg>
